<svg xmlns="http://www.w3.org/2000/svg" width="512" height="512"><path fill="#030201" d="M324.035 23.191C331.1 29.694 336.013 38.378 337 48l3.813 1.188c4.807 1.566 9.217 3.706 13.707 6.019 2.436 1.061 2.436 1.061 4.617-.008L361 54c6.064-2.021 10.687-2.096 16.57.691C385.853 59.411 393.537 65.09 401 71l2.66 2.074C414.513 81.722 425.275 91.17 434 102c.885 1.05 1.77 2.1 2.656 3.148 22.624 27.16 22.624 27.16 22.586 40.387-.301 3.07-1.655 4.867-3.242 7.465 1.406 5.257 3.76 10.178 5.965 15.14C464 172.793 464 172.793 464 175l3.938.688C479.777 178.316 488.296 186.24 495 196c15.737 25.98 19.44 59.463 12.548 88.853C504.592 296.44 500.77 307.039 494 317l-1.648 2.484c-6.62 9.261-15.479 14.477-26.352 17.516h-2l-1.188 3.813c-1.566 4.807-3.706 9.217-6.019 13.707-1.061 2.436-1.061 2.436.008 4.617L458 361c2.021 6.064 2.096 10.687-.691 16.57-4.72 8.283-10.398 15.969-16.309 23.43l-2.11 2.695c-8.394 10.51-17.44 20.797-27.89 29.305-1.126.96-2.25 1.921-3.375 2.883-27.702 23.398-27.702 23.398-41.16 23.36-3.07-.302-4.867-1.656-7.465-3.243-5.257 1.406-10.178 3.76-15.14 5.965C339.207 464 339.207 464 337 464l-.625 3.875C334.599 475.86 330.103 482.624 324 488l-1.527 1.57c-17.883 17.453-45.97 20.813-69.656 20.73-24.112-.386-48.644-6.572-66.817-23.3-5.917-6.446-10.1-14.22-11-23l-3.813-1.188c-4.807-1.566-9.217-3.706-13.707-6.019-2.436-1.061-2.436-1.061-4.617.008L151 458c-6.064 2.021-10.687 2.096-16.57-.691-8.283-4.72-15.967-10.399-23.43-16.309l-2.66-2.074C97.487 430.278 86.725 420.83 78 410c-.885-1.05-1.77-2.1-2.656-3.148-22.624-27.16-22.624-27.16-22.586-40.387.301-3.07 1.655-4.867 3.242-7.465-1.406-5.257-3.76-10.178-5.965-15.14C48 339.207 48 339.207 48 337l-3.938-.688C31.24 333.466 22.962 324.651 16 314 1.06 288.852-2.658 255.269 4.457 227.024 9.346 208.812 16.344 190.497 33 180c4.87-2.596 9.463-4.432 15-5l1.188-3.813c1.566-4.807 3.706-9.217 6.019-13.707 1.061-2.436 1.061-2.436-.008-4.617L54 151c-2.021-6.064-2.096-10.687.691-16.57C59.411 126.147 65.09 118.463 71 111l2.074-2.66C81.722 97.487 91.17 86.725 102 78c1.05-.885 2.1-1.77 3.148-2.656 27.16-22.624 27.16-22.624 40.387-22.586 3.07.301 4.867 1.655 7.465 3.242 5.257-1.406 10.178-3.76 15.14-5.965C172.793 48 172.793 48 175 48l.688-3.938C178.316 32.222 186.24 23.704 196 17c37.577-22.762 93.424-21.91 128.035 6.191Zm-154.64 159.266c-3.242 3.586-5.882 7.425-8.395 11.543l-1.984 3.168c-15.76 25.837-20.351 56.78-13.27 86.223C150.41 301.13 158.517 317.445 171 331l1.453 1.582c18.872 20.307 45.456 35.004 73.537 36.586 32.024 1.152 60.685-6.747 85.01-28.168a632.26 632.26 0 0 1 3.25-2.563C356.422 318.786 367.488 289.913 370 261c1.31-28.49-8.79-57.896-28-79a1379.898 1379.898 0 0 1-3.063-3.75c-12.82-14.701-30.945-24.411-49.187-30.625l-2.108-.723c-43.673-14.073-88.102 3.497-118.247 35.555Z"/><path fill="#F3F3F3" d="M283.873 46.658c2.326.374 4.657.692 6.99 1.014 11.246 1.68 21.934 4.615 32.7 8.203l3.744 1.244C335.478 59.925 343.23 63.233 351 67c-1.619 4.285-3.784 7.715-6.5 11.375-3.457 4.75-6.827 9.534-10.062 14.438C324.168 108.346 313.656 123.729 303 139l-1.555-.516c-28.603-9.052-56.598-9.962-85.445-1.484a149556473.22 149556473.22 0 0 0-7 2c-15.7-22.45-15.7-22.45-22.194-32.274-3.781-5.714-7.634-11.378-11.493-17.038l-1.874-2.75a734.623 734.623 0 0 0-11.165-15.93C161 69 161 69 161 67c17.426-7.962 34.308-13.822 53-18l2.364-.549c21.686-4.986 45.573-5.382 67.509-1.793ZM445 161c25.166 53.972 29.298 112.043 9 168.5-2.693 7.313-5.525 14.517-9 21.5-5-1.624-8.858-4.57-13.063-7.625a545.316 545.316 0 0 0-17.802-12.291c-5.217-3.468-10.394-6.996-15.572-10.522l-3.293-2.24A2352.395 2352.395 0 0 1 373 303c.665-3.716 1.68-7.172 2.875-10.75 7.562-24.618 7.034-50.115-.754-74.605A78.375 78.375 0 0 1 373 209c22.45-15.7 22.45-15.7 32.274-22.194 5.714-3.781 11.378-7.634 17.038-11.494l2.75-1.873a734.623 734.623 0 0 0 15.93-11.165C443 161 443 161 445 161Z"/><path fill="#F4F4F4" d="M67 161c4.936 1.613 8.723 4.481 12.875 7.5 5.383 3.858 10.784 7.665 16.313 11.313C110.594 189.337 124.826 199.131 139 209l-.516 1.59c-1.767 5.648-3.245 11.341-4.609 17.097l-.517 2.158c-5.408 23.162-2.704 46.446 5.005 68.686C139 301 139 301 138 304c-1.95 1.516-1.95 1.516-4.688 3.25L130 309.395l-1.906 1.232c-4.134 2.71-8.202 5.519-12.281 8.31l-5.715 3.903-2.992 2.042a6096.01 6096.01 0 0 1-9.735 6.622l-1.677 1.139c-2.68 1.82-5.36 3.64-8.042 5.458l-2.98 2.024-2.865 1.945c-3.65 2.51-7.249 5.086-10.837 7.68C69 351 69 351 67 351c-23.998-55.465-30.435-114.325-7.96-171.784 2.47-6.155 5.055-12.251 7.96-18.216Z"/><path fill="#F3F3F3" d="m209 373 1.798.574c5.574 1.761 11.204 3.204 16.89 4.551l2.157.517c23.162 5.408 46.446 2.704 68.686-5.005C301 373 301 373 304 374c1.76 2.305 1.76 2.305 3.684 5.32l2.14 3.306 1.097 1.708c1.644 2.538 3.348 5.035 5.052 7.533l2.014 2.96 2.075 3.048c.73 1.07 1.458 2.141 2.209 3.244l4.51 6.623a91197.864 91197.864 0 0 0 12.134 17.826l1.718 2.522 1.657 2.433a404.839 404.839 0 0 0 3.693 5.255l1.947 2.726 1.78 2.467C351 443 351 443 351 445c-52.98 23.583-111.583 30.547-167 10-7.775-3.09-15.418-6.465-23-10 1.192-3.2 2.464-5.917 4.469-8.68l1.463-2.039 1.568-2.156a2857.17 2857.17 0 0 0 4.956-6.937c2.135-3.025 4.192-6.097 6.232-9.188 4.61-6.976 9.298-13.898 14-20.813l2.16-3.181A1422.86 1422.86 0 0 1 209 373Z"/><path fill="#FD5858" d="M367 65c21.434 2.835 48.427 34.085 61 50l2.477 3.102c4.48 5.67 8.698 11.469 12.648 17.523l1.184 1.794c1.763 2.763 2.691 4.236 2.691 7.581-1.898 1.631-1.898 1.631-4.59 3.414l-3.028 2.03c-1.095.72-2.19 1.44-3.32 2.181-1.137.759-2.274 1.518-3.41 2.279a2493.168 2493.168 0 0 1-7.111 4.737c-5.44 3.617-10.832 7.304-16.228 10.984a14257.475 14257.475 0 0 0-27.235 18.555c-1.643 1.121-3.286 2.24-4.931 3.358a467.472 467.472 0 0 0-4.017 2.764C369.217 198 369.217 198 367 198c-1.07-1.687-2.053-3.429-3-5.188-11.684-20.483-28.882-37.197-50-47.812 1.359-3.742 3.061-6.803 5.316-10.078l2.04-2.98 2.207-3.192a4481.18 4481.18 0 0 0 2.292-3.343 5208.9 5208.9 0 0 1 4.77-6.947c3.688-5.367 7.342-10.759 11-16.147a18351.844 18351.844 0 0 1 20.496-30.086l1.545-2.264A674.014 674.014 0 0 0 367 65ZM145 65c1.631 1.898 1.631 1.898 3.414 4.59l2.03 3.027 2.181 3.32c.76 1.14 1.521 2.28 2.283 3.418 1.585 2.37 3.165 4.742 4.741 7.117 3.573 5.373 7.216 10.698 10.851 16.028l4.191 6.172c2.617 3.85 5.243 7.693 7.881 11.528a5061.5 5061.5 0 0 1 4.727 6.891 1831.61 1831.61 0 0 0 3.346 4.852l2.039 2.979 1.798 2.612c1.494 2.428 2.547 4.791 3.518 7.466l-2.605 1.363C186.28 151.268 178.585 156.978 171 164l-1.587 1.454C159.167 174.94 151.404 185.545 145 198c-3.784-1.37-6.872-3.108-10.184-5.387l-3.025-2.07-3.228-2.23a4300.251 4300.251 0 0 1-10.257-7.04c-4.759-3.274-9.533-6.523-14.306-9.773l-5.332-3.637c-6.449-4.396-12.902-8.786-19.356-13.175l-3.279-2.231-3.045-2.07A835.147 835.147 0 0 0 65 145c2.835-21.434 34.085-48.427 50-61l3.102-2.477c5.67-4.48 11.469-8.698 17.523-12.648l1.794-1.184C140.182 65.928 141.655 65 145 65ZM367 314c3.742 1.359 6.803 3.061 10.078 5.316l2.98 2.04 3.192 2.207 3.343 2.292a5208.9 5208.9 0 0 1 6.947 4.77c5.367 3.688 10.759 7.342 16.147 11a18351.844 18351.844 0 0 1 30.086 20.496l2.264 1.545A674.014 674.014 0 0 0 447 367c-6.566 30.502-46.504 60.368-70.813 76.25l-1.759 1.16c-2.721 1.736-4.131 2.59-7.428 2.59-1.631-1.898-1.631-1.898-3.414-4.59l-2.03-3.027-2.181-3.32c-.76-1.14-1.521-2.28-2.283-3.418-1.585-2.37-3.165-4.742-4.741-7.117-3.573-5.373-7.216-10.698-10.851-16.028l-4.191-6.172c-2.617-3.85-5.243-7.693-7.881-11.528a5061.5 5061.5 0 0 1-4.727-6.891 1831.61 1831.61 0 0 0-3.346-4.852l-2.039-2.979-1.798-2.612c-1.494-2.428-2.547-4.791-3.518-7.466l2.605-1.363C325.72 360.732 333.407 355.01 341 348l2.906-2.656c9.49-9.064 17.195-19.609 23.094-31.344ZM145 314l1.363 2.605C151.268 325.72 156.99 333.407 164 341l2.656 2.906c9.064 9.49 19.609 17.195 31.344 23.094-1.359 3.742-3.061 6.803-5.316 10.078l-2.04 2.98-2.207 3.192a4481.18 4481.18 0 0 0-2.292 3.343 5208.9 5208.9 0 0 1-4.77 6.947c-3.688 5.367-7.342 10.759-11 16.147a18351.844 18351.844 0 0 1-20.496 30.086l-1.545 2.264A674.014 674.014 0 0 0 145 447c-5.086-.488-8.392-3-12.438-5.875l-2.132-1.497c-24.705-17.496-45.098-38.044-61.68-63.44l-1.16-1.76C65.854 371.708 65 370.298 65 367c2.221-1.847 2.221-1.847 5.352-3.922l1.7-1.14c1.852-1.24 3.712-2.463 5.573-3.688a2776.59 2776.59 0 0 0 3.875-2.588c2.608-1.744 5.22-3.483 7.833-5.219 4.919-3.27 9.794-6.605 14.667-9.943l5.234-3.566c3.78-2.576 7.554-5.159 11.325-7.746 2.59-1.775 5.183-3.546 7.776-5.316 1.27-.869 2.54-1.74 3.808-2.611 1.767-1.215 3.538-2.424 5.31-3.632l3.099-2.123C143 314 143 314 145 314Z"/><path fill="#E3E3E3" d="M67 161c3.89 1.388 6.966 3.215 10.313 5.625l2.675 1.914L82 170l-.883 1.957c-5.377 12.36-9.408 25.209-12.367 38.356l-.457 2.021A210.462 210.462 0 0 0 67 219l-.54 2.908c-1.784 10.784-1.859 21.498-1.835 32.405l.003 2.954C64.713 285.966 68.999 315.999 82 342a1595.926 1595.926 0 0 1-6.375 4.5l-1.828 1.3c-4.57 3.2-4.57 3.2-6.797 3.2-23.998-55.465-30.435-114.325-7.96-171.784 2.47-6.155 5.055-12.251 7.96-18.216Z"/><path fill="#E33956" d="M145 65a77.611 77.611 0 0 1 4.688 6.375l1.26 1.828C154 77.715 154 77.715 154 80a120.684 120.684 0 0 1-5.75 4.438C141.426 89.553 135.154 95.097 129 101l-1.626 1.543C110.474 118.653 98.114 137.57 87 158c-2.971-.604-5.066-1.511-7.566-3.215l-1.971-1.33-2.025-1.393-2.038-1.38c-1.25-.849-2.5-1.7-3.746-2.553A510.373 510.373 0 0 0 65 145c2.835-21.434 34.085-48.427 50-61l3.102-2.477c5.67-4.48 11.469-8.698 17.523-12.648l1.794-1.184C140.182 65.928 141.655 65 145 65Z"/><path fill="#E43956" d="m87 354 1.836 3.445C98.472 375.296 110.093 391.191 124 406l1.507 1.61c8.746 9.268 18.105 17.024 28.493 24.39-1.388 3.89-3.215 6.966-5.625 10.313l-1.914 2.675L145 447c-5.086-.488-8.392-3-12.438-5.875l-2.132-1.497c-24.705-17.496-45.098-38.044-61.68-63.44l-1.16-1.76C65.854 371.708 65 370.298 65 367c1.697-1.534 1.697-1.534 4.05-3.137l2.557-1.748 2.706-1.803 2.67-1.837C83.6 354 83.6 354 87 354Z"/><path fill="#F9D93E" d="M314.375 31.438c3.074 3 5.305 5.946 7.625 9.562v2l-2.945-.734a453.695 453.695 0 0 0-25.368-5.453l-2.67-.505c-33.9-6.13-67.884-.942-101.017 6.692 1.639-4.456 3.463-6.777 7-10l1.39-1.402c28.295-26.937 86.412-23.013 115.985-.16Z"/><path fill="#F9DA3E" d="m190 469 2.586.734c8.799 2.359 17.597 4.064 26.601 5.454l3.234.504c21.568 3.222 44.016 3.896 65.579.308l2.657-.439c10.546-1.774 21.033-3.69 31.343-6.561-3.184 9.23-11.203 14.77-19.562 19.175-24.746 12.01-54.522 12.99-80.625 5.137-4.752-1.722-9.216-3.91-13.688-6.25l-1.876-.98c-6.977-3.805-11.946-8.374-16.249-15.082v-2ZM43 190c-.38 1.653-.38 1.653-.77 3.34C35.194 224.197 30.174 256.493 36 288c.308 1.823.613 3.646.918 5.469.338 1.969.678 3.938 1.02 5.906l.477 2.777c.94 5.172 2.181 10.024 4.001 14.96C43 319 43 319 43 322c-4.495-1.413-6.847-3.54-10-7l-1.402-1.355c-14.132-14.582-17.974-39.56-17.903-58.895.493-21.11 5.402-43.944 20.305-59.75 5.798-5 5.798-5 9-5ZM469 190c4.456 1.639 6.777 3.463 10 7l1.416 1.516c3.837 4.255 6.427 8.523 8.772 13.734l1.037 2.269c2.554 5.713 4.592 11.319 5.775 17.481l.613 3.113C500.96 260.748 497.4 288.896 483 311c-3.634 4.715-7.825 10.108-14 11 .65-4.372 1.658-8.504 2.875-12.75 1.605-5.808 2.829-11.619 3.813-17.563l.36-2.168c3.378-21.277 2.871-43.214-.048-64.519l-.325-2.431c-1.51-11.06-3.749-21.8-6.675-32.569Z"/><path fill="#D9D9D9" d="m204 53-2.281 1.031C188.9 59.881 176.299 66.121 164 73c-3-3.75-3-3.75-3-6 10.519-4.806 20.983-9.434 32-13l3.645-1.195c3.096-.743 4.466-.96 7.355.195ZM164 439l2.395 1.434C178.493 447.527 191.083 453.548 204 459c-3.248 1.075-5.124.921-8.352-.152l-2.555-.844-2.718-.942-2.794-.947C178.473 452.952 169.72 449.099 161 445c1.875-4.875 1.875-4.875 3-6Z"/></svg>