<?xml version="1.0" encoding="UTF-8" standalone="no"?>
<!-- Created with Inkscape (http://www.inkscape.org/) -->

<svg
   version="1.1"
   id="svg1"
   width="212.58316"
   height="244.92436"
   viewBox="0 0 212.58316 244.92436"
   xml:space="preserve"
   xmlns="http://www.w3.org/2000/svg"
   xmlns:svg="http://www.w3.org/2000/svg"><defs
     id="defs1" /><g
     id="g1"
     transform="translate(-587.85239,55.24664)"><path
       style="fill:#000000"
       d="m 692.14876,188.76729 c -0.7732,-0.62933 -4.80684,-8.56923 -8.96365,-17.64423 -4.1568,-9.075 -9.82328,-21.3375 -12.59217,-27.25 l -5.03434,-10.75 h 28.45151 c 15.64834,0 28.45152,0.16882 28.45152,0.37516 0,0.40519 -4.36745,10.04998 -10.69804,23.62484 -2.18017,4.675 -6.33822,13.74763 -9.24011,20.16139 -5.3163,11.75012 -7.32068,13.96858 -10.37472,11.48284 z m -63.68713,-76.64423 v -11 h 6.98422 c 6.26204,0 7.3133,0.29403 10.16667,2.84351 2.71537,2.42618 3.18244,3.52813 3.18244,7.50814 0,7.65266 -5.49274,11.62888 -16.08333,11.64277 l -4.25,0.006 z m 13.36514,4.92742 c 1.88747,-1.48468 2.63486,-3.00082 2.63486,-5.34501 0,-4.22969 -2.86949,-6.81679 -7.72666,-6.96628 l -3.77334,-0.11613 -0.29381,7.25 -0.29381,7.25 h 3.40895 c 1.93455,0 4.54855,-0.89641 6.04381,-2.07258 z m 12.10595,4.32258 c 0.37678,-0.9625 2.28439,-5.9125 4.23912,-11 3.43128,-8.93046 3.66182,-9.25 6.67372,-9.25 3.31977,0 2.81988,-0.92331 11.4494,21.14747 0.18334,0.46889 -0.73051,0.85253 -2.03076,0.85253 -1.70847,0 -2.67813,-0.83198 -3.49647,-3 -1.04456,-2.76737 -1.50983,-3 -6,-3 -4.49017,0 -4.95543,0.23263 -6,3 -0.7842,2.07759 -1.80691,3 -3.32622,3 -1.6837,0 -2.03455,-0.40695 -1.50879,-1.75 z m 13.14542,-11.94371 c -1.54799,-4.47128 -3.16128,-5.25622 -3.99291,-1.94274 -0.33829,1.34785 -0.89013,3.16745 -1.22632,4.04355 -0.48854,1.27309 0.10241,1.5929 2.94338,1.5929 h 3.55465 z m 26.38349,2.69371 c 0,-10.33333 0.12121,-11 2,-11 1.85185,0 2,0.66667 2,9 v 9 h 6.5 c 5.83333,0 6.5,0.20513 6.5,2 0,1.84314 -0.66667,2 -8.5,2 h -8.5 z m 21.45289,9.25 c 7.67375,-20.13742 7.73474,-20.25 10.97024,-20.25 3.27162,0 2.79973,-0.87459 11.4102,21.14747 0.18334,0.46889 -0.73051,0.85253 -2.03076,0.85253 -1.70847,0 -2.67813,-0.83198 -3.49647,-3 -1.04456,-2.76737 -1.50983,-3 -6,-3 -4.49017,0 -4.95543,0.23263 -6,3 -0.7842,2.07759 -1.80691,3 -3.32622,3 -1.67677,0 -2.03668,-0.41247 -1.52699,-1.75 z m 12.9831,-12.05743 c -2.06996,-4.95413 -2.20813,-4.98215 -3.95467,-0.80209 -1.8895,4.52219 -1.44372,5.40439 2.44261,4.83399 l 3.01199,-0.44206 z m 17.42017,12.73331 c -1.88929,-0.73016 -2.50449,-1.55465 -2.15558,-2.88889 0.4142,-1.58391 0.91829,-1.71721 3.32329,-0.87883 3.8411,1.33902 8.39103,0.70103 8.75617,-1.22779 0.20458,-1.0807 -1.58382,-2.38121 -5.74145,-4.17514 -5.3547,-2.31043 -6.03685,-2.92544 -6.02328,-5.43037 0.008,-1.55367 0.37757,-3.39558 0.82031,-4.09313 1.26916,-1.99955 6.68153,-3.13001 10.6743,-2.22949 4.36021,0.98339 4.91753,1.44147 4.15891,3.4184 -0.46647,1.2156 -1.15553,1.30566 -3.56459,0.46585 -6.41331,-2.23569 -10.65563,1.10728 -4.85424,3.82516 1.5125,0.70859 3.9875,1.86499 5.5,2.56977 2.12676,0.991 2.81812,2.08691 3.05056,4.83559 0.19385,2.29226 -0.25015,4.01123 -1.25054,4.84148 -2.04448,1.69677 -9.36337,2.25453 -12.69386,0.96739 z M 598.50543,88.873064 c -0.50233,-1.2375 -2.97905,-13.275 -5.50382,-26.75 -2.52477,-13.475 -4.76406,-25.29542 -4.97621,-26.26759 -0.9459,-4.33457 1.2329,-4.73241 25.91737,-4.73241 h 23.33829 l -2.53279,-5.25 c -1.39303,-2.8875 -3.57964,-7.61704 -4.85914,-10.51008 l -2.32636,-5.26008 2.2094,-1.44766 c 6.93583,-4.54453 28.30653,-11.170713 43.78732,-13.576667 10.37652,-1.612672 42.03947,-0.70605 51.65072,1.478943 14.71852,3.34606395 35.25142,11.547094 35.25142,14.079744 0,0.67974 -2.01026,5.56712 -4.46725,10.86084 l -4.46724,9.62496 h 22.88546 c 12.587,0 23.59726,0.27314 24.46724,0.60699 0.98734,0.37888 1.57187,1.78816 1.55538,3.75 -0.034,4.04396 -9.25634,52.74139 -10.301,54.39301 -0.62344,0.98567 -20.87144,1.25 -95.75304,1.25 h -94.96243 z m 17.7561,-14 0.29991,-5.75 5.70009,-0.0564 c 7.81715,-0.0774 12.1919,-1.79072 14.91547,-5.84144 4.52773,-6.73401 1.89007,-16.69773 -5.20515,-19.6623 -2.25891,-0.94383 -7.07408,-1.43982 -13.9781,-1.43982 h -10.53212 v 18.83333 c 0,10.35834 0.32142,19.15475 0.71426,19.5476 0.39284,0.39284 2.30534,0.58034 4.25,0.41666 l 3.53574,-0.29759 z m 0.2001,-19.25 v -5.5 h 5.27749 c 6.08905,0 9.72251,2.01871 9.72251,5.40172 0,3.79858 -2.99894,5.59828 -9.32874,5.59828 h -5.67126 z m 39.77159,5.75 0.2716,-19.25 h -4.5216 -4.52159 v 18.83333 c 0,10.35834 0.32142,19.15475 0.71426,19.5476 0.39284,0.39284 2.30534,0.58034 4.25,0.41666 l 3.53574,-0.29759 z m 41.03665,15.53563 0.30824,-3.71438 -9.94596,-0.28562 -9.94596,-0.28563 9.93981,-11.90112 c 8.50671,-10.18525 9.89625,-12.34791 9.63772,-15 l -0.30209,-3.09888 -15.75,-0.27539 -15.75,-0.2754 v 3.98919 3.98918 l 9.64052,0.28621 9.64051,0.28621 -9.64051,11.33882 c -7.87662,9.26419 -9.64052,11.93247 -9.64052,14.58334 0,1.78448 0.31126,3.55576 0.69168,3.93619 0.38043,0.38042 7.46793,0.56792 15.75,0.41666 l 15.05832,-0.27501 z m 39.19176,0.25058 v -3.96379 l -9.57018,-0.28621 -9.57019,-0.28621 9.57019,-11.16429 c 8.71033,-10.16121 9.57018,-11.53137 9.57018,-15.25 v -4.08571 h -15.5 -15.5 v 4 4 h 9.5 c 5.225,0 9.5,0.26357 9.5,0.58571 0,0.32214 -4.275,5.57466 -9.5,11.67227 -7.65831,8.93729 -9.5,11.69936 -9.5,14.24762 0,1.73859 0.3,3.46107 0.66667,3.82773 0.36666,0.36667 7.34166,0.66667 15.5,0.66667 h 14.83333 z m 17.91668,-0.58076 2.01027,-4.54454 7.22327,0.29454 7.22327,0.29455 2.06521,4 c 1.70623,3.30472 2.65188,4.05612 5.44041,4.32284 1.85636,0.17757 3.70679,-0.0474 4.11205,-0.5 0.40527,-0.45256 -2.46767,-9.14784 -6.3843,-19.32284 l -7.12115,-18.5 -5.63756,-0.29676 -5.63756,-0.29676 -2.56394,6.79676 c -8.23056,21.81843 -11.38568,30.88121 -10.98271,31.54676 0.24975,0.4125 2.20648,0.75 4.34828,0.75 3.65943,0 4.01538,-0.27397 5.90446,-4.54455 z m 4.31726,-12.70545 c 0.24635,-0.6875 1.28339,-3.6125 2.30453,-6.5 1.02114,-2.8875 2.15743,-5.25 2.52508,-5.25 0.60835,0 4.93645,10.83037 4.93645,12.35267 0,0.35603 -2.29814,0.64733 -5.10699,0.64733 -3.65781,0 -4.97988,-0.3547 -4.65907,-1.25 z m -144.95306,-44.5 c -0.36099,-0.9625 -4.58657,-10.74642 -9.39017,-21.742053 -6.94607,-15.899816 -8.49402,-20.284849 -7.56227,-21.42247 2.1179,-2.585855 16.00084,-11.18365 25.17156,-15.58891 30.31259,-14.561001 66.62679,-19.286041 103,-13.401893 10.85535,1.756086 28.74845,7.506009 40.27002,12.940713 11.90544,5.615774 27.22998,15.429221 27.22998,17.437384 0,0.740178 -4.13813,10.836605 -9.19585,22.43650395 L 774.06992,21.123064 h -3.18739 -3.18739 l 2.00206,-6.55908 2.00206,-6.55907 -2.28732,-2.43474 c -3.35647,-3.5728 -20.03027,-11.783118 -30.95031,-15.240186 -14.62471,-4.629896 -27.31645,-6.452759 -45,-6.463165 -26.95002,-0.01586 -51.29475,6.427641 -70.35778,18.622121 -6.35541,4.0655 -6.53968,4.71251 -3.69608,12.97757 l 1.94614,5.65655 h -3.47752 c -2.39523,0 -3.6818,-0.54465 -4.13388,-1.75 z"
       id="path237581" /></g></svg>
