<svg xmlns="http://www.w3.org/2000/svg" width="48" height="48"><path fill="#CF4C1B" d="M33.375 6.063C37.691 9.248 41.286 12.858 43 18c.95 12.65.95 12.65-3 18-5.023 5.023-8.565 7.14-15.813 7.25-5.817-.077-9.593-.656-13.84-4.902-5.072-5.646-5.654-9.877-5.554-17.407.398-5.651 2.633-8.593 6.707-12.253 6.074-5.075 14.545-4.933 21.875-2.626Z"/><path fill="#D1D3D4" d="M33.375 6.063C37.691 9.248 41.286 12.858 43 18c.95 12.65.95 12.65-3 18-5.023 5.023-8.565 7.14-15.813 7.25-5.817-.077-9.593-.656-13.84-4.902-5.072-5.646-5.654-9.877-5.554-17.407.398-5.651 2.633-8.593 6.707-12.253 6.074-5.075 14.545-4.933 21.875-2.626Zm-22.688 8.562C7.524 19.077 7.513 22.646 8 28c1.964 5.675 5.628 9.314 11 12 4.955.544 8.871.564 13.375-1.688 3.593-3.165 7.32-6.524 7.863-11.484.169-5.846-.214-9.26-4.238-13.828-4.767-4.302-8.437-5.363-14.719-5.281-4.78.59-7.53 3.43-10.593 6.906Z"/><path fill="#E0DEDE" d="M16 21c2.063.438 2.063.438 4 1v2l4 2c-.472 4.248-2.967 6.2-6 9l-3-1 1-1.75c1.27-2.449 1.27-2.449 1-6.25-.933-2.2-.933-2.2-2-4l1-1Z"/><path fill="#E4E4E5" d="M33 13c-.6 3.356-1.846 5.378-4 8h2l2 5c-4 0-4 0-6.75-2.5L24 21c1.864-4.35 3.976-8 9-8Z"/></svg>